<svg width="18" height="18" viewBox="0 0 18 18" fill="none" xmlns="http://www.w3.org/2000/svg">
<path d="M10.0551 9.00505L17.7709 1.28919C18.0687 1.00158 18.077 0.527032 17.7894 0.229233C17.5018 -0.0685669 17.0272 -0.0768245 16.7294 0.210785C16.7232 0.216802 16.7171 0.222952 16.711 0.229233L8.99508 7.9451L1.27921 0.229189C0.981408 -0.0584206 0.506861 -0.0501631 0.219251 0.247636C-0.0613304 0.538145 -0.0613304 0.99868 0.219251 1.28919L7.93512 9.00505L0.219251 16.7209C-0.0734093 17.0136 -0.0734093 17.4882 0.219251 17.7809C0.511956 18.0735 0.986503 18.0735 1.27921 17.7809L8.99508 10.065L16.7109 17.7809C17.0087 18.0685 17.4833 18.0602 17.7709 17.7624C18.0514 17.4719 18.0514 17.0114 17.7709 16.7209L10.0551 9.00505Z" fill="#363853"/>
</svg>
