<svg width="22" height="22" viewBox="0 0 22 22" fill="none" xmlns="http://www.w3.org/2000/svg">
<g opacity="0.9">
<path d="M11.5748 2.54016V1.58133C11.5748 1.41925 11.5104 1.26381 11.3958 1.14921C11.2812 1.0346 11.1257 0.970215 10.9637 0.970215C10.8016 0.970215 10.6462 1.0346 10.5315 1.14921C10.4169 1.26381 10.3526 1.41925 10.3526 1.58133V2.54566C5.55045 2.87933 1.74445 6.88974 1.74445 11.7753C1.74445 16.8777 5.89664 21.0299 11 21.0299C16.1034 21.0299 20.2556 16.8777 20.2556 11.7753C20.2556 6.8653 16.4114 2.83808 11.5748 2.54016ZM11 19.8077C6.57039 19.8077 2.96667 16.204 2.96667 11.7753C2.96667 7.34594 6.57039 3.74252 11 3.74252C15.4297 3.74252 19.0334 7.34594 19.0334 11.7753C19.0334 16.204 15.4297 19.8077 11 19.8077Z" fill="#31352B"/>
<path d="M7.86293 17.3217C5.86796 16.1902 4.62863 14.0644 4.62863 11.7749C4.62863 11.6056 4.49204 11.4694 4.32307 11.4694C4.1541 11.4694 4.01752 11.6056 4.01752 11.7749C4.01752 14.2841 5.37571 16.6134 7.56166 17.8536C7.6322 17.8936 7.71572 17.9039 7.79386 17.8823C7.87199 17.8606 7.93833 17.8088 7.97828 17.7383C8.01823 17.6678 8.02852 17.5842 8.00689 17.5061C7.98526 17.428 7.93348 17.3616 7.86293 17.3217Z" fill="#31352B"/>
<path d="M9.52923 18.1599C9.41091 18.1291 9.29343 18.095 9.17693 18.0579C9.10021 18.0349 9.01754 18.043 8.94672 18.0804C8.87589 18.1177 8.82257 18.1814 8.79822 18.2577C8.77387 18.334 8.78044 18.4168 8.81653 18.4883C8.85261 18.5598 8.91531 18.6142 8.99115 18.64C9.11826 18.6809 9.24598 18.7176 9.37646 18.7509C9.4549 18.7711 9.53817 18.7594 9.60796 18.7182C9.67775 18.6771 9.72835 18.6099 9.74862 18.5315C9.75868 18.4927 9.76098 18.4523 9.75539 18.4126C9.7498 18.3729 9.73643 18.3347 9.71605 18.3002C9.69567 18.2657 9.66868 18.2355 9.63662 18.2114C9.60456 18.1874 9.56807 18.1699 9.52923 18.1599Z" fill="#31352B"/>
<path d="M18.8854 5.728C19.0002 5.84242 19.1557 5.90658 19.3177 5.90635C19.4798 5.90612 19.6351 5.84153 19.7495 5.72677C19.864 5.61202 19.9281 5.45652 19.9279 5.29447C19.9277 5.13241 19.8631 4.97709 19.7483 4.86266L18.1616 3.27989C18.1048 3.22317 18.0374 3.1782 17.9632 3.14756C17.889 3.11692 17.8095 3.10121 17.7293 3.10132C17.649 3.10143 17.5695 3.11737 17.4955 3.14822C17.4214 3.17907 17.3541 3.22423 17.2975 3.28111C17.1831 3.39591 17.119 3.5514 17.1193 3.71342C17.1195 3.87544 17.184 4.03074 17.2987 4.14522L18.8854 5.728Z" fill="#31352B"/>
<path d="M11.5746 11.6613V6.77578C11.5746 6.61371 11.5102 6.45827 11.3956 6.34366C11.281 6.22906 11.1255 6.16467 10.9635 6.16467C10.8014 6.16467 10.646 6.22906 10.5313 6.34366C10.4167 6.45827 10.3524 6.61371 10.3524 6.77578V11.9253C10.3524 12.0937 10.4401 12.2541 10.5623 12.3693L12.3507 14.0407C12.4689 14.1519 12.6196 14.2075 12.7702 14.2075C12.8521 14.2076 12.933 14.1906 13.0079 14.1576C13.0828 14.1245 13.1499 14.0762 13.205 14.0156C13.4375 13.77 13.4168 13.3834 13.1714 13.1518L11.5746 11.6613Z" fill="#31352B"/>
</g>
</svg>
